<svg width="620" height="930" viewBox="0 0 620 930" fill="none" xmlns="http://www.w3.org/2000/svg">
<g clip-path="url(#clip0_611_779)">
<path d="M556.386 25.258L560.878 23.4231C569.348 19.9635 578.805 25.4242 580.043 34.4889L580.721 39.4504L585.346 40.1149C594.322 41.4048 599.723 50.7589 596.351 59.1778L594.556 63.6584L598.35 66.6415C605.48 72.2469 605.48 83.0481 598.35 88.6533L594.556 91.6359L596.351 96.117C599.723 104.536 594.322 113.89 585.345 115.18L580.721 115.844L580.043 120.806C578.805 129.871 569.347 135.331 560.878 131.871L556.386 130.036L553.414 133.871C547.81 141.102 536.888 141.102 531.283 133.871L528.311 130.036L523.819 131.871C515.35 135.331 505.892 129.871 504.653 120.807L503.975 115.843L499.353 115.179C490.376 113.89 484.975 104.536 488.347 96.1169L490.141 91.6359L486.347 88.653C479.218 83.0479 479.218 72.2472 486.347 66.6418L490.141 63.6584L488.347 59.1771C484.975 50.7584 490.375 41.4048 499.352 40.1148L503.975 39.4504L504.653 34.4874C505.892 25.4232 515.35 19.9633 523.819 23.4229L528.311 25.258L531.284 21.423C536.889 14.1922 547.809 14.1924 553.414 21.4234L556.386 25.258Z" fill="#FB8DCC"/>
<path d="M400.99 19L406.383 59.9138L443.628 77.6861L406.383 95.4583L400.99 136.372L372.578 106.442L332 113.956L351.685 77.6861L332 41.4161L372.578 48.9299L400.99 19Z" fill="#FAAC26"/>
<path d="M215.842 16.7449C216.21 13.8388 220.007 12.9791 221.59 15.4435L224.698 20.2805C228.392 26.0308 236.791 26.0459 240.506 20.3089L243.631 15.4831C245.223 13.0244 249.017 13.8976 249.374 16.8051L250.076 22.5116C250.91 29.2957 258.47 32.9539 264.306 29.3972L269.215 26.4054C271.716 24.8811 274.755 27.3143 273.816 30.0889L271.973 35.5348C269.781 42.009 275.006 48.5858 281.807 47.9138L287.527 47.3486C290.442 47.0606 292.125 50.5719 290.075 52.6641L286.051 56.7707C281.268 61.6527 283.123 69.8455 289.541 72.1914L294.941 74.1647C297.692 75.17 297.685 79.0638 294.93 80.0593L289.524 82.0132C283.097 84.3361 281.213 92.5222 285.979 97.4213L289.987 101.542C292.03 103.642 290.334 107.147 287.42 106.849L281.702 106.263C274.903 105.567 269.655 112.125 271.824 118.607L273.648 124.059C274.577 126.837 271.529 129.259 269.033 127.726L264.135 124.717C258.312 121.139 250.739 124.77 249.88 131.551L249.158 137.255C248.79 140.161 244.993 141.021 243.41 138.556L240.302 133.719C236.608 127.969 228.209 127.954 224.494 133.691L221.369 138.517C219.777 140.976 215.983 140.102 215.626 137.195L214.924 131.488C214.09 124.704 206.53 121.046 200.694 124.603L195.785 127.595C193.284 129.119 190.245 126.686 191.184 123.911L193.027 118.465C195.219 111.991 189.994 105.414 183.193 106.086L177.473 106.651C174.558 106.939 172.875 103.428 174.925 101.336L178.949 97.2293C183.732 92.3473 181.877 84.1545 175.459 81.8086L170.059 79.8353C167.308 78.83 167.315 74.9362 170.07 73.9407L175.476 71.9867C181.903 69.6639 183.787 61.4778 179.021 56.5787L175.013 52.4577C172.97 50.3581 174.666 46.853 177.58 47.1514L183.298 47.7371C190.097 48.4335 195.345 41.8755 193.176 35.3935L191.352 29.941C190.423 27.163 193.471 24.7408 195.967 26.274L200.865 29.2834C206.688 32.861 214.261 29.2299 215.12 22.4489L215.842 16.7449Z" fill="#845CF1"/>
<path d="M60 132H25L60 98V132Z" fill="#FFD630"/>
<path d="M95 132H60L95 98V132Z" fill="#FFD630"/>
<path d="M130.5 132H95.5L130.5 98V132Z" fill="#FFD630"/>
<path d="M60 94H25L60 60V94Z" fill="#FFD630"/>
<path d="M95 94H60L95 60V94Z" fill="#FFD630"/>
<path d="M130.5 94H95.5L130.5 60V94Z" fill="#FFD630"/>
<path d="M60 57H25L60 23V57Z" fill="#FFD630"/>
<path d="M95 57H60L95 23V57Z" fill="#FFD630"/>
<path d="M130.5 57H95.5L130.5 23V57Z" fill="#FFD630"/>
<path d="M77.5 165L83.1899 174.73L90.6686 166.297L94.351 176.95L103.331 170.138L104.865 181.304L115.001 176.376L114.327 187.627L125.23 184.77L122.373 195.673L133.624 194.999L128.696 205.135L139.862 206.669L133.05 215.649L143.703 219.331L135.27 226.81L145 232.5L135.27 238.19L143.703 245.669L133.05 249.351L139.862 258.331L128.696 259.865L133.624 270.001L122.373 269.327L125.23 280.23L114.327 277.373L115.001 288.624L104.865 283.696L103.331 294.862L94.351 288.05L90.6686 298.703L83.1899 290.27L77.5 300L71.8101 290.27L64.3314 298.703L60.649 288.05L51.6689 294.862L50.1354 283.696L39.999 288.624L40.6735 277.373L29.7703 280.23L32.6267 269.327L21.3758 270.001L26.3045 259.865L15.1381 258.331L21.9496 249.351L11.297 245.669L19.7295 238.19L10 232.5L19.7295 226.81L11.297 219.331L21.9496 215.649L15.1381 206.669L26.3045 205.135L21.3758 194.999L32.6267 195.673L29.7703 184.77L40.6735 187.627L39.999 176.376L50.1354 181.304L51.6689 170.138L60.649 176.95L64.3314 166.297L71.8101 174.73L77.5 165Z" fill="#3C73C5"/>
<path d="M47.5 444.993C47.3337 444.996 47.167 445 47 445C32.0883 445 20 432.912 20 418H47.5V444.993ZM77.5 418C92.4117 418 104.5 430.088 104.5 445H77C62.0883 445 50 432.912 50 418H77.5ZM108.5 418C123.412 418 135.5 430.088 135.5 445H108V418.007C108.166 418.004 108.333 418 108.5 418ZM47.5 360.007V413.993C47.3337 413.996 47.167 414 47 414C32.0883 414 20 401.912 20 387C20 372.088 32.0883 360 47 360C47.167 360 47.3337 360.004 47.5 360.007ZM104.5 360C104.5 374.912 92.4117 387 77.5 387C92.4117 387 104.5 399.088 104.5 414H77C62.0883 414 50 401.912 50 387C50 372.088 62.0883 360 77 360H104.5ZM108.5 387C123.412 387 135.5 399.088 135.5 414H108V387.007C108.166 387.004 108.333 387 108.5 387ZM135.5 360C135.5 374.912 123.412 387 108.5 387C108.333 387 108.166 386.996 108 386.993V360H135.5ZM47.5 329.007V356H20C20 341.088 32.0883 329 47 329C47.167 329 47.3337 329.004 47.5 329.007ZM104.5 329C104.5 343.912 92.4117 356 77.5 356H50C50 341.088 62.0883 329 77 329H104.5ZM135.5 329C135.5 343.912 123.412 356 108.5 356C108.333 356 108.166 355.996 108 355.993V329H135.5Z" fill="#FFA123"/>
<path d="M66.7353 478.807C72.9974 473.684 82.0026 473.684 88.2647 478.807L93.2285 482.868C96.2096 485.307 99.9306 486.661 103.782 486.709L110.195 486.789C118.285 486.889 125.183 492.678 126.687 500.628L127.879 506.929C128.595 510.714 130.575 514.143 133.495 516.655L138.356 520.839C144.489 526.116 146.053 534.984 142.095 542.041L138.957 547.635C137.073 550.994 136.385 554.894 137.007 558.695L138.042 565.024C139.348 573.009 134.845 580.807 127.277 583.669L121.279 585.937C117.676 587.299 114.642 589.845 112.675 593.156L109.4 598.67C105.268 605.626 96.8055 608.706 89.1688 606.034L83.1154 603.915C79.4799 602.643 75.5201 602.643 71.8846 603.915L65.8312 606.034C58.1945 608.706 49.7324 605.626 45.6002 598.67L42.3247 593.156C40.3576 589.845 37.3242 587.299 33.7215 585.937L27.7226 583.669C20.1547 580.807 15.6521 573.009 16.9579 565.024L17.993 558.695C18.6146 554.893 17.927 550.994 16.0428 547.635L12.9054 542.041C8.94735 534.984 10.5111 526.116 16.6439 520.839L21.5053 516.655C24.4248 514.143 26.4047 510.714 27.1206 506.929L28.3127 500.628C29.8166 492.678 36.715 486.889 44.8052 486.789L51.2181 486.709C55.0695 486.661 58.7904 485.307 61.7715 482.868L66.7353 478.807Z" fill="#FB8CCB"/>
<path d="M59.2811 644.535C67.3622 630.526 87.5812 630.526 95.6623 644.535L97.8439 648.317L102.061 647.186C117.681 642.994 131.978 657.291 127.786 672.911L126.654 677.128L130.436 679.309C144.446 687.391 144.446 707.61 130.436 715.691L126.654 717.872L127.786 722.089C131.978 737.709 117.681 752.006 102.061 747.814L97.8439 746.683L95.6623 750.465C87.5812 764.474 67.3622 764.474 59.2811 750.465L57.0996 746.683L52.8828 747.814C37.2624 752.006 22.9654 737.709 27.1574 722.089L28.289 717.872L24.5071 715.691C10.4976 707.61 10.4976 687.391 24.5071 679.309L28.289 677.128L27.1574 672.911C22.9654 657.291 37.2624 642.994 52.8828 647.186L57.0996 648.317L59.2811 644.535Z" fill="#3EDBA6"/>
<path d="M91.5907 791.07L100.271 805.478L116.958 803.365L118.527 820.112L134.479 825.448L128.627 841.218L140.684 852.947L128.568 864.615L134.342 880.414L118.364 885.671L116.711 902.41L100.035 900.213L91.2827 914.578L77.2107 905.363L63.093 914.507L54.4128 900.099L37.7254 902.213L36.1563 885.466L20.2043 880.13L26.0571 864.36L14 852.631L26.1154 840.962L20.3413 825.164L36.3198 819.907L37.9723 803.168L54.6491 805.365L63.4009 791L77.4729 800.215L91.5907 791.07Z" fill="#F1695B"/>
<path fill-rule="evenodd" clip-rule="evenodd" d="M292 173C292 180.956 288.839 188.587 283.213 194.213C278.887 198.539 273.376 201.405 267.443 202.5C273.376 203.595 278.887 206.461 283.213 210.787C288.603 216.177 291.729 223.407 291.982 231C291.988 231 291.994 231 292 231V291C283.778 291 275.894 287.839 270.08 282.213C266.144 278.404 263.378 273.676 262 268.551C260.622 273.676 257.856 278.404 253.92 282.213C248.342 287.611 240.858 290.737 232.999 290.982C232.999 290.988 233 290.994 233 291H173C173 283.044 176.161 275.413 181.787 269.787C186.113 265.461 191.624 262.595 197.557 261.5C191.624 260.405 186.113 257.539 181.787 253.213C176.397 247.823 173.271 240.593 173.018 233C173.012 233 173.006 233 173 233V173C181.222 173 189.106 176.161 194.92 181.787C198.856 185.596 201.622 190.324 203 195.449C204.378 190.324 207.144 185.596 211.08 181.787C216.658 176.39 224.141 173.262 232 173.017C232 173.011 232 173.006 232 173H292ZM232 239.666C230.657 244.747 227.993 249.433 224.213 253.213C219.887 257.539 214.376 260.405 208.442 261.5C214.376 262.595 219.887 265.461 224.213 269.787C227.992 273.566 230.656 278.25 232 283.329V239.666ZM239.931 232C245.178 233.344 250.016 236.009 253.92 239.787C257.856 243.596 260.622 248.323 262 253.448C263.378 248.323 266.144 243.596 270.08 239.787C273.984 236.009 278.822 233.344 284.069 232H239.931ZM203 210.552C201.622 215.677 198.856 220.404 194.92 224.213C191.016 227.991 186.178 230.656 180.931 232H225.069C219.822 230.656 214.984 227.991 211.08 224.213C207.144 220.404 204.378 215.677 203 210.552ZM233 224.333C234.343 219.252 237.007 214.567 240.787 210.787C245.113 206.461 250.624 203.595 256.558 202.5C250.624 201.405 245.113 198.539 240.787 194.213C237.008 190.434 234.344 185.749 233 180.67V224.333Z" fill="#3EDBA6"/>
<path d="M240.359 344.143L254.866 330.409L255.925 351.233L275.487 344.013L268.569 362.753L288.538 363.299L274.562 378.773L293.5 387.5L275.356 395.859L289.091 410.366L268.266 411.426L275.487 430.987L256.746 424.069L256.201 444.038L240.726 430.062L232 449L223.64 430.856L209.134 444.591L208.073 423.766L188.513 430.987L195.43 412.246L175.462 411.701L189.438 396.226L170.5 387.5L188.643 379.14L174.909 364.634L195.733 363.573L188.513 344.013L207.253 350.93L207.799 330.962L223.273 344.938L232 326L240.359 344.143Z" fill="#F28AC5"/>
<path d="M230 595C223.303 595 216.671 593.681 210.483 591.118C204.296 588.555 198.673 584.798 193.938 580.062C189.202 575.327 185.445 569.704 182.882 563.517C180.319 557.329 179 550.697 179 544H230V595ZM235 544C241.697 544 248.329 545.319 254.517 547.882C260.704 550.445 266.327 554.202 271.062 558.938C275.798 563.673 279.555 569.296 282.118 575.483C284.681 581.671 286 588.303 286 595H235V544ZM230 540H179C179 533.303 180.319 526.671 182.882 520.483C185.445 514.296 189.202 508.673 193.938 503.938C198.673 499.202 204.296 495.445 210.483 492.882C216.671 490.319 223.303 489 230 489V540ZM286 489C286 495.697 284.681 502.329 282.118 508.517C279.555 514.704 275.798 520.327 271.062 525.062C266.327 529.798 260.704 533.555 254.517 536.118C248.329 538.681 241.697 540 235 540V489H286Z" fill="#EF6C5B"/>
<path d="M218.069 645.454C223.952 633.984 240.346 633.984 246.229 645.454C257.058 638.461 271.256 646.659 270.616 659.533C283.49 658.893 291.687 673.091 284.695 683.92C296.165 689.803 296.165 706.197 284.695 712.08C291.687 722.909 283.49 737.107 270.616 736.467C271.256 749.341 257.058 757.538 246.229 750.546C240.346 762.016 223.952 762.016 218.069 750.546C207.24 757.538 193.042 749.341 193.682 736.467C180.808 737.107 172.61 722.909 179.603 712.08C168.132 706.197 168.132 689.803 179.603 683.92C172.61 673.091 180.808 658.893 193.682 659.533C193.042 646.659 207.24 638.461 218.069 645.454Z" fill="#8760EF"/>
<path d="M251.63 809.107L275.509 810.169L276.568 834.028L293.863 852.932L276.599 871.801L275.509 896.339L250.89 897.433L232.932 913.863L215.025 897.48L189.339 896.339L188.196 870.634L172 852.932L188.226 835.196L189.339 810.169L214.285 809.06L232.932 792L251.63 809.107Z" fill="#3C73C5"/>
<path d="M387.5 173L397.491 211.731C398.855 217.017 402.983 221.145 408.269 222.509L447 232.5L408.269 242.491C402.983 243.855 398.855 247.983 397.491 253.269L387.5 292L377.509 253.269C376.145 247.983 372.017 243.855 366.731 242.491L328 232.5L366.731 222.509C372.017 221.145 376.145 217.017 377.509 211.731L387.5 173Z" fill="#F1695B"/>
<path d="M416.5 328C432.792 328 446 341.208 446 357.5C446 371.736 435.915 383.615 422.5 386.387V387.612C435.915 390.384 446 402.264 446 416.5C446 432.792 432.792 446 416.5 446C402.061 446 390.047 435.626 387.5 421.925C384.953 435.626 372.939 446 358.5 446C342.208 446 329 432.792 329 416.5C329 401.787 337.649 390.416 351.5 388.281V386.482C338.033 383.897 329 371.905 329 357.5C329 341.208 342.208 328 358.5 328C372.939 328 384.953 338.374 387.5 352.074C390.047 338.374 402.061 328 416.5 328ZM357.441 386.559L388 417.118L418.559 386.559L388 356L357.441 386.559Z" fill="#FED420"/>
<path d="M397.461 603.033L392.494 603.605L388.394 559.303L391.373 558.959L397.461 603.033ZM387.231 559.376L382.178 603.58L377.225 602.9L384.26 558.969L387.231 559.376ZM412.875 598.394L408.227 600.236L392.76 558.519L395.549 557.413L412.875 598.394ZM382.879 558.708L366.636 600.129L362.023 598.199L380.111 557.551L382.879 558.708ZM378.92 556.989L352.764 592.98L348.786 589.951L376.533 555.171L378.92 556.989ZM426.954 589.579L422.97 592.601L396.893 556.551L399.283 554.738L426.954 589.579ZM375.326 554.127L340.485 581.797L337.465 577.812L373.514 551.736L375.326 554.127ZM438.157 577.316L435.128 581.294L400.347 553.547L402.165 551.16L438.157 577.316ZM445.327 563.453L443.397 568.066L402.748 549.978L403.905 547.21L445.327 563.453ZM372.631 550.407L331.651 567.733L329.808 563.085L371.524 547.618L372.631 550.407ZM448.802 547.915L448.122 552.869L404.189 545.834L404.598 542.861L448.802 547.915ZM371.062 546.24L326.989 552.328L326.416 547.36L370.719 543.261L371.062 546.24ZM449.009 538.262L404.705 542.362L404.362 539.382L448.437 533.295L449.009 538.262ZM371.045 538.26L370.638 541.231L326.434 536.178L327.113 531.225L371.045 538.26ZM445.83 522.456L404.112 537.923L403.006 535.135L443.986 517.808L445.83 522.456ZM372.662 534.142L371.505 536.909L330.084 520.666L332.014 516.054L372.662 534.142ZM438.362 507.59L402.312 533.666L400.5 531.275L435.342 503.605L438.362 507.59ZM375.223 530.641L373.405 533.027L337.413 506.872L340.443 502.894L375.223 530.641ZM427.187 495.267L399.439 530.047L397.053 528.229L423.209 492.237L427.187 495.267ZM378.822 527.751L376.432 529.563L348.762 494.723L352.746 491.702L378.822 527.751ZM414.036 486.815L395.948 527.465L393.181 526.308L409.424 484.886L414.036 486.815ZM383.064 525.932L380.275 527.037L362.949 486.058L367.598 484.215L383.064 525.932ZM398.868 481.891L391.833 525.824L388.861 525.416L393.915 481.212L398.868 481.891ZM387.495 525.315L384.515 525.659L378.428 481.586L383.395 481.013L387.495 525.315Z" fill="#5467FF"/>
<path d="M360 725.5L332 754.5V698L360 725.5Z" fill="#F48FC7"/>
<path d="M416.75 726L388 698.241V753.758L416.75 726L444.25 754H388V754.5L360 725.5L387.876 698.121L387.75 698H444.25L416.75 726Z" fill="#F48FC7"/>
<path d="M388 697H331.5L360.5 669L388 697Z" fill="#F48FC7"/>
<path d="M416 667.5L388 696.5V640L416 667.5Z" fill="#F48FC7"/>
<path d="M444 696.5L416 667.5L444 640V696.5Z" fill="#F48FC7"/>
<path d="M360.5 669L331.5 641H388L360.5 669Z" fill="#F48FC7"/>
<path d="M408.263 787.921L414.847 814.709L442.358 812.693L431.94 838.234L455.382 852.774L431.94 867.314L442.358 892.856L414.847 890.84L408.263 917.627L387.191 899.826L366.119 917.627L359.535 890.84L332.023 892.856L342.442 867.314L319 852.774L342.442 838.234L332.023 812.693L359.535 814.709L366.119 787.921L387.191 805.723L408.263 787.921Z" fill="#38DDA5"/>
<path d="M560.834 174C574.917 174 586.334 185.417 586.334 199.5C586.334 202.12 585.938 204.647 585.204 207.026C592.126 208.425 598.438 212.676 602.246 219.272C609.287 231.469 605.108 247.064 592.912 254.105C590.644 255.415 588.257 256.336 585.83 256.89C588.08 263.584 587.555 271.175 583.746 277.771C576.704 289.968 561.108 294.147 548.912 287.105C546.643 285.795 544.652 284.188 542.959 282.363C538.287 287.658 531.451 291 523.834 291C509.751 291 498.334 279.583 498.334 265.5C498.334 262.88 498.729 260.353 499.463 257.974C492.541 256.575 486.229 252.326 482.421 245.729C475.379 233.533 479.559 217.937 491.755 210.896C494.024 209.586 496.41 208.663 498.837 208.109C496.588 201.416 497.113 193.825 500.921 187.229C507.963 175.032 523.559 170.854 535.755 177.896C538.023 179.205 540.014 180.811 541.707 182.636C546.38 177.341 553.217 174 560.834 174ZM553.509 212.674C551.105 211.286 548.031 212.11 546.643 214.514L542.339 221.968L538.035 214.514C536.647 212.11 533.573 211.286 531.169 212.674C528.765 214.062 527.942 217.136 529.33 219.54L533.634 226.994H525.026C522.251 226.994 520 229.245 520 232.021C520 234.796 522.251 237.047 525.026 237.047H533.633L529.33 244.5C527.942 246.904 528.765 249.978 531.169 251.366C533.573 252.754 536.647 251.93 538.035 249.526L542.339 242.071L546.643 249.526C548.031 251.93 551.105 252.754 553.509 251.366C555.912 249.978 556.736 246.904 555.348 244.5L551.044 237.047H559.651C562.427 237.047 564.678 234.796 564.678 232.021C564.678 229.245 562.427 226.994 559.651 226.994H551.043L555.348 219.54C556.735 217.136 555.913 214.062 553.509 212.674Z" fill="#FED420"/>
<path d="M542.5 328L551.554 341.982L565.27 332.529L568.284 348.911L584.573 345.427L581.089 361.716L597.471 364.73L588.018 378.446L602 387.5L588.018 396.554L597.471 410.27L581.089 413.284L584.573 429.573L568.284 426.089L565.27 442.471L551.554 433.018L542.5 447L533.446 433.018L519.73 442.471L516.716 426.089L500.427 429.573L503.911 413.284L487.529 410.27L496.982 396.554L483 387.5L496.982 378.446L487.529 364.73L503.911 361.716L500.427 345.427L516.716 348.911L519.73 332.529L533.446 341.982L542.5 328Z" fill="#8760EF"/>
<path d="M526.077 482.459L542.211 509.009L558.344 482.459L559.041 513.519L586.288 498.593L571.362 525.84L602.421 526.537L575.871 542.67L602.421 558.804L571.362 559.501L586.288 586.748L559.041 571.821L558.344 602.881L542.211 576.331L526.077 602.881L525.38 571.821L498.133 586.748L513.06 559.501L482 558.804L508.55 542.67L482 526.537L513.06 525.84L498.133 498.593L525.38 513.519L526.077 482.459Z" fill="#3EDBA6"/>
<path d="M543 637L559.205 681.16L603 697.5L559.205 713.84L543 758L526.795 713.84L483 697.5L526.795 681.16L543 637Z" fill="#FFA92E"/>
<path d="M542.5 790C551.06 790 558 796.94 558 805.5V815.079L564.774 808.306C570.828 802.253 580.641 802.253 586.694 808.306C592.747 814.359 592.747 824.173 586.694 830.227L579.921 837H589.5C598.06 837 605 843.94 605 852.5C605 861.06 598.06 868 589.5 868H579.921L586.694 874.773C592.747 880.827 592.747 890.641 586.694 896.694C580.641 902.747 570.827 902.747 564.774 896.694L558 889.919V899.5C558 908.06 551.06 915 542.5 915C533.94 915 527 908.06 527 899.5V889.921L520.227 896.694C514.173 902.747 504.359 902.747 498.306 896.694C492.253 890.641 492.253 880.827 498.306 874.773L505.079 868H495.5C486.94 868 480 861.06 480 852.5C480 843.94 486.94 837 495.5 837H505.081L498.307 830.226C492.254 824.172 492.254 814.359 498.307 808.306C504.36 802.253 514.173 802.253 520.227 808.306L527 815.079V805.5C527 796.94 533.94 790 542.5 790ZM542 832C530.954 832 522 840.954 522 852C522 863.046 530.954 872 542 872C553.046 872 562 863.046 562 852C562 840.954 553.046 832 542 832Z" fill="#FF89C6"/>
</g>
<defs>
<clipPath id="clip0_611_779">
<rect width="620" height="930" fill="white"/>
</clipPath>
</defs>
</svg>
