<?xml version="1.0" encoding="utf-8"?>
<!-- Generator: Adobe Illustrator 23.1.1, SVG Export Plug-In . SVG Version: 6.00 Build 0)  -->
<svg version="1.1" id="圖層_1" xmlns="http://www.w3.org/2000/svg" xmlns:xlink="http://www.w3.org/1999/xlink" x="0px" y="0px"
	 viewBox="0 0 272.16 283.46" style="enable-background:new 0 0 272.16 283.46;" xml:space="preserve">
<style type="text/css">
	.st0{fill:#191919;}
</style>
<g>
	<path class="st0" d="M7.65,171.65c4.07,0.83,43,5.99,43,5.99l4.94,29.96h53.15v-56.41c0,0-98.3,0-101.09,0
		c-2.81,0-6.04,1.9-6.04,9.93C1.61,169.17,3.49,170.91,7.65,171.65z"/>
	<path class="st0" d="M55.59,283.04h118.35c69.65,0,95.58-35.64,95.58-73.4V73.73c0-38.2-25.93-73.46-95.58-73.46H7.65
		c-2.81,0-6.04,1.88-6.04,9.99c0,8.03,1.88,9.71,6.04,10.54c4.07,0.74,43,5.99,43,5.99l4.94,29.93l110.69,0.03
		c31.86,0,39.53,12.33,39.53,34.42v101.01c0,22.1-7.67,34.42-39.53,34.42H7.65c-2.81,0-6.04,1.9-6.04,9.93
		c0,8.08,1.88,9.79,6.04,10.56c4.07,0.8,43,6.04,43,6.04L55.59,283.04z"/>
	<path class="st0" d="M50.66,102.25l4.94,29.9h53.15V75.75c0,0-98.3,0-101.09,0c-2.81,0-6.04,1.85-6.04,9.9s1.88,9.79,6.04,10.56
		C11.72,97.01,50.66,102.25,50.66,102.25z"/>
</g>
</svg>
