<svg width="16" height="16" viewBox="0 0 16 16" fill="none" xmlns="http://www.w3.org/2000/svg">
<g clip-path="url(#clip0_170_11)">
<path d="M7.08786 3.65056C7.64059 3.67547 8.19323 4.08359 8.19323 4.71257V7.42071C8.32472 7.35654 8.47626 7.31837 8.649 7.31837H8.80102C9.17113 7.31841 9.42851 7.59007 9.5788 7.82431C9.63201 7.90725 9.67908 7.99665 9.7201 8.08848C9.92729 7.95993 10.1755 7.90159 10.4348 7.90158C10.7643 7.90161 11.049 8.01174 11.2568 8.22538C11.3459 8.31703 11.4158 8.42261 11.4687 8.53731C11.6609 8.4409 11.8681 8.38825 12.0741 8.38824C12.4431 8.38828 12.7424 8.54337 12.9413 8.79822C13.1332 9.0442 13.2174 9.36321 13.2174 9.68565V15.8762H12.599V9.68565C12.599 9.45942 12.5393 9.28146 12.4506 9.16785C12.369 9.06321 12.2511 8.99582 12.0741 8.99579C11.9272 8.9958 11.7538 9.05321 11.5942 9.17719V10.0286C11.5942 10.1963 11.4557 10.3323 11.285 10.3324C11.1143 10.3323 10.9758 10.1963 10.9758 10.0286V9.05764C10.954 8.86139 10.8897 8.72742 10.8098 8.64514C10.7331 8.56626 10.6175 8.50915 10.4348 8.50913C10.1384 8.50914 9.95877 8.61743 9.86609 8.8178L9.81642 8.92504V9.80075C9.81642 9.9685 9.67796 10.1045 9.50724 10.1045C9.33652 10.1045 9.19806 9.9685 9.19806 9.80075V8.4409C9.15972 8.3367 9.11146 8.23517 9.0557 8.14825C8.93593 7.96157 8.83997 7.92596 8.80102 7.92591H8.649C8.46507 7.92593 8.30848 8.03834 8.19323 8.27151V9.35429C8.19323 9.44464 8.15435 9.53361 8.07669 9.58197C7.93207 9.67194 7.82232 9.67143 7.68478 9.58153C7.61094 9.53325 7.57489 9.44707 7.57488 9.35993V4.71257C7.57487 4.4829 7.36053 4.27058 7.0634 4.25751L7.03442 4.25691C6.71813 4.25693 6.52432 4.44614 6.5243 4.67964L6.56914 11.6898C6.56981 11.7943 6.54854 11.9017 6.48128 11.9826C6.39152 12.0905 6.29691 12.1171 6.15247 12.0658C6.03715 12.0249 5.95451 11.9272 5.90051 11.819L5.51992 11.0566L5.51585 11.0486L5.51238 11.0403C5.34523 10.6484 5.17802 10.2653 4.95969 9.96465C4.74516 9.66925 4.50721 9.48963 4.20848 9.44892C4.03545 9.42536 3.93303 9.42605 3.87771 9.4332C3.85938 9.45238 3.83681 9.48102 3.81672 9.51493C3.79531 9.55109 3.78192 9.58443 3.77611 9.60971C3.7739 9.61934 3.77328 9.62588 3.77309 9.62973L4.90187 12.2404L6.49743 15.7523L5.93282 16L4.33559 12.4844L4.33439 12.4819L4.33333 12.4794L3.19369 9.84362L3.18885 9.83235L3.18493 9.82093C3.10345 9.58074 3.20185 9.34515 3.28215 9.20953C3.3272 9.13346 3.38105 9.06372 3.43644 9.00751C3.4804 8.9629 3.56313 8.88725 3.67104 8.85636L3.7041 8.84761C3.8716 8.80781 4.07502 8.81729 4.29332 8.84702C4.82312 8.9192 5.19394 9.24105 5.46316 9.61179C5.6565 9.87805 5.81067 10.1882 5.94293 10.4839L5.90594 4.68157V4.67964C5.90597 4.02682 6.46865 3.64939 7.03442 3.64937L7.08786 3.65056Z" fill="white"/>
<path d="M6.95652 0.231934C9.38977 0.231934 11.3623 2.16998 11.3623 4.56069C11.3623 5.25032 11.1981 5.90228 10.9061 6.48092C10.7977 6.69568 10.5573 7.02325 10.3928 6.84624C10.2568 6.6999 10.4037 6.45052 10.4931 6.27281C10.7526 5.75658 10.8985 5.17541 10.8985 4.56069C10.8985 2.42163 9.13364 0.687592 6.95652 0.687592C4.77939 0.687592 3.01449 2.42163 3.01449 4.56069C3.01449 5.64832 3.4707 6.63133 4.20546 7.33483C4.26681 7.39357 4.31805 7.4652 4.32971 7.54857C4.3456 7.66252 4.31509 7.72837 4.21165 7.76245C4.09585 7.80058 3.97173 7.74676 3.8842 7.66308C3.0617 6.87668 2.55072 5.77736 2.55072 4.56069C2.55072 2.16998 4.52326 0.231934 6.95652 0.231934Z" fill="white"/>
</g>
<defs>
<clipPath id="clip0_170_11">
<rect width="16" height="16" fill="white"/>
</clipPath>
</defs>
</svg>
