<svg width="16" height="16" viewBox="0 0 16 16" fill="none" xmlns="http://www.w3.org/2000/svg">
<g clip-path="url(#clip0_18_87)">
<rect width="16" height="16" fill="white"/>
<path d="M7.08786 3.65051C7.64059 3.67543 8.19323 4.08354 8.19323 4.71253V7.42067C8.32472 7.35649 8.47626 7.31833 8.649 7.31832H8.80102C9.17113 7.31837 9.42851 7.59002 9.5788 7.82426C9.63201 7.9072 9.67908 7.9966 9.7201 8.08843C9.92729 7.95988 10.1755 7.90155 10.4348 7.90154C10.7643 7.90156 11.049 8.01169 11.2568 8.22534C11.3459 8.31698 11.4158 8.42256 11.4687 8.53726C11.6609 8.44085 11.8681 8.3882 12.0741 8.3882C12.4431 8.38824 12.7424 8.54333 12.9413 8.79817C13.1332 9.04415 13.2174 9.36316 13.2174 9.68561V15.8761H12.599V9.68561C12.599 9.45937 12.5393 9.28141 12.4506 9.1678C12.369 9.06316 12.2511 8.99578 12.0741 8.99574C11.9272 8.99575 11.7538 9.05317 11.5942 9.17714V10.0285C11.5942 10.1963 11.4557 10.3323 11.285 10.3323C11.1143 10.3323 10.9758 10.1963 10.9758 10.0285V9.05759C10.954 8.86134 10.8897 8.72738 10.8098 8.6451C10.7331 8.56622 10.6175 8.5091 10.4348 8.50908C10.1384 8.50909 9.95877 8.61739 9.86609 8.81775L9.81642 8.92499V9.80071C9.81642 9.96845 9.67796 10.1044 9.50724 10.1045C9.33652 10.1044 9.19806 9.96845 9.19806 9.80071V8.44085C9.15972 8.33665 9.11146 8.23513 9.0557 8.14821C8.93593 7.96153 8.83997 7.92591 8.80102 7.92586H8.649C8.46507 7.92588 8.30848 8.03829 8.19323 8.27146V9.35425C8.19323 9.44459 8.15435 9.53357 8.07669 9.58193C7.93207 9.67189 7.82232 9.67139 7.68478 9.58148C7.61094 9.5332 7.57489 9.44703 7.57488 9.35988V4.71253C7.57487 4.48285 7.36053 4.27053 7.0634 4.25746L7.03442 4.25687C6.71813 4.25689 6.52432 4.4461 6.5243 4.6796L6.56914 11.6898C6.56981 11.7943 6.54854 11.9017 6.48128 11.9826C6.39152 12.0905 6.29691 12.1171 6.15247 12.0658C6.03715 12.0248 5.95451 11.9272 5.90051 11.819L5.51992 11.0566L5.51585 11.0486L5.51238 11.0403C5.34523 10.6484 5.17802 10.2653 4.95969 9.96461C4.74516 9.6692 4.50721 9.48959 4.20848 9.44888C4.03545 9.42531 3.93303 9.426 3.87771 9.43316C3.85938 9.45234 3.83681 9.48098 3.81672 9.51488C3.79531 9.55104 3.78192 9.58439 3.77611 9.60966C3.7739 9.61929 3.77328 9.62583 3.77309 9.62969L4.90187 12.2404L6.49743 15.7523L5.93282 16L4.33559 12.4844L4.33439 12.4819L4.33333 12.4793L3.19369 9.84357L3.18885 9.8323L3.18493 9.82088C3.10345 9.58069 3.20185 9.34511 3.28215 9.20948C3.3272 9.13341 3.38105 9.06368 3.43644 9.00746C3.4804 8.96285 3.56313 8.8872 3.67104 8.85631L3.7041 8.84756C3.8716 8.80777 4.07502 8.81725 4.29332 8.84697C4.82312 8.91915 5.19394 9.24101 5.46316 9.61174C5.6565 9.87801 5.81067 10.1881 5.94293 10.4839L5.90594 4.68153V4.6796C5.90597 4.02677 6.46865 3.64934 7.03442 3.64932L7.08786 3.65051Z" fill="black"/>
<path d="M6.95652 0.231888C9.38977 0.231888 11.3623 2.16994 11.3623 4.56064C11.3623 5.25027 11.1981 5.90224 10.9061 6.48087C10.7977 6.69564 10.5573 7.0232 10.3928 6.8462C10.2568 6.69985 10.4037 6.45047 10.4931 6.27277C10.7526 5.75654 10.8985 5.17536 10.8985 4.56064C10.8985 2.42159 9.13364 0.687546 6.95652 0.687546C4.77939 0.687546 3.01449 2.42159 3.01449 4.56064C3.01449 5.64827 3.4707 6.63128 4.20546 7.33478C4.26681 7.39352 4.31805 7.46515 4.32971 7.54852C4.3456 7.66247 4.31509 7.72832 4.21165 7.76241C4.09585 7.80054 3.97173 7.74672 3.8842 7.66303C3.0617 6.87663 2.55072 5.77731 2.55072 4.56064C2.55072 2.16994 4.52326 0.231888 6.95652 0.231888Z" fill="black"/>
</g>
<defs>
<clipPath id="clip0_18_87">
<rect width="16" height="16" fill="white"/>
</clipPath>
</defs>
</svg>
